<svg xmlns="http://www.w3.org/2000/svg" viewBox="0 0 100 100">
  <rect width="100" height="100" rx="22" fill="oklch(51.1% 0.262 276.966)"/>
  <circle cx="50" cy="50" r="38" fill="#ffffff"/>
  <g transform="translate(50,50) scale(2.1) translate(-16,-16)">
    <path fill="oklch(51.1% 0.262 276.966)" d="M25 13.082h-4.278a4 4 0 0 0-.478-1.436 3.7 3.7 0 0 0-.928-1.083 4.1 4.1 0 0 0-1.309-.685 5.1 5.1 0 0 0-1.592-.237q-1.553 0-2.705.75-1.153.742-1.788 2.168-.634 1.416-.634 3.441 0 2.082.634 3.498.646 1.416 1.797 2.139 1.154.723 2.667.722a5.4 5.4 0 0 0 1.572-.218 4.2 4.2 0 0 0 1.3-.637q.566-.427.937-1.036.381-.61.527-1.388l4.278.019a7.4 7.4 0 0 1-.83 2.585 7.8 7.8 0 0 1-1.768 2.215q-1.104.97-2.637 1.54-1.524.561-3.448.561-2.676 0-4.785-1.179-2.1-1.179-3.32-3.412Q7 19.175 7 16q0-3.184 1.23-5.418 1.231-2.235 3.34-3.403Q13.682 6 16.318 6q1.74 0 3.223.475 1.495.476 2.647 1.388a7.2 7.2 0 0 1 1.875 2.215q.733 1.312.938 3.004"/>
  </g>
</svg>
